# xmcd
# 
# Track frame offsets:
#     150
#     21243
#     41871
#     62978
# 
# Disc length: 1111
# 
# Revision: 0
# Processed by: cddbd v1.5.2PL0 Copyright (c) Steve Scherf et al.
# Submitted via: fre:ac v1.0.17
# 
DISCID=35045504
DTITLE=Various Artist - ユートピアは見えているのに
DYEAR=2003
DGENRE=J-POP
TTITLE0=DEEN - ユートピアは見えてるのに
TTITLE1=DEEN - Re-Birth
TTITLE2=DEEN - ユートピアは見えてるのに 〜instrumental〜
TTITLE3=DEEN - Re-Birth 〜instrumental〜
EXTD=YEAR: 2003
EXTT0=
EXTT1=
EXTT2=
EXTT3=
PLAYORDER=
